<?xml version="1.0" standalone="no"?>
<!DOCTYPE svg PUBLIC "-//W3C//DTD SVG 20010904//EN"
 "http://www.w3.org/TR/2001/REC-SVG-20010904/DTD/svg10.dtd">
<svg version="1.0" xmlns="http://www.w3.org/2000/svg"
 width="500.000000pt" height="500.000000pt" viewBox="0 0 500.000000 500.000000"
 preserveAspectRatio="xMidYMid meet">
<metadata>
Created by potrace 1.14, written by Peter Selinger 2001-2017
</metadata>
<g transform="translate(0.000000,500.000000) scale(0.100000,-0.100000)"
fill="#000000" stroke="none">
<path d="M570 4564 c-7 -7 -11 -159 -11 -399 0 -308 3 -390 13 -397 7 -4 141
-8 298 -7 312 1 364 8 435 57 61 43 90 102 90 187 0 80 -21 126 -71 160 l-30
20 28 24 c39 31 59 73 60 124 2 104 -50 180 -149 217 -55 21 -75 23 -356 25
-220 1 -300 -2 -307 -11z m486 -209 c18 -24 18 -35 -2 -63 -14 -20 -24 -22
-104 -22 l-88 0 0 47 c0 26 1 50 3 54 2 3 43 5 91 4 72 -1 89 -4 100 -20z m7
-294 c24 -19 26 -58 5 -81 -16 -17 -31 -20 -112 -20 l-93 0 0 53 c-1 28 1 54
3 58 6 11 183 2 197 -10z"/>
<path d="M2077 4559 c-16 -22 -13 -207 2 -222 8 -8 56 -12 139 -12 l127 0 5
-280 5 -280 139 -3 c77 -1 143 1 148 6 5 5 9 131 9 280 0 150 3 273 7 273 4 1
64 2 134 3 70 1 130 5 134 9 10 10 10 224 0 234 -4 4 -194 8 -423 8 -374 1
-416 -1 -426 -16z"/>
<path d="M3601 4572 c-17 -6 -13 -33 15 -108 26 -70 60 -162 153 -424 79 -220
93 -254 109 -267 22 -18 325 -18 340 0 11 12 41 92 132 347 61 171 115 320
136 373 15 41 18 76 7 78 -36 6 -263 4 -281 -2 -12 -5 -26 -19 -31 -31 -9 -23
-69 -217 -77 -247 -8 -32 -42 -147 -51 -170 -9 -21 -11 -18 -27 35 -10 33 -26
86 -36 119 -26 86 -68 226 -75 252 -12 42 -31 48 -170 48 -73 1 -137 -1 -144
-3z"/>
<path d="M2410 2963 c-186 -27 -309 -125 -335 -267 -12 -59 -9 -276 4 -321 25
-94 115 -188 205 -215 77 -23 92 -25 221 -25 109 0 141 4 201 23 123 41 203
131 222 254 15 99 6 277 -18 339 -35 95 -133 171 -260 201 -46 11 -196 18
-240 11z m155 -239 c49 -23 57 -54 53 -193 -3 -108 -5 -123 -25 -142 -42 -42
-151 -40 -190 3 -15 17 -18 40 -19 147 -1 71 3 135 9 146 25 50 109 69 172 39z"/>
<path d="M565 2946 c-13 -10 -15 -65 -13 -406 l3 -395 240 -2 c264 -2 321 5
410 46 141 66 183 155 180 376 -2 95 -7 131 -24 175 -38 99 -123 168 -246 200
-66 17 -529 22 -550 6z m456 -232 c48 -24 54 -40 55 -153 0 -58 -4 -119 -9
-134 -14 -41 -54 -57 -142 -57 l-75 0 0 181 0 180 73 -2 c39 -1 84 -8 98 -15z"/>
<path d="M3631 2948 c-19 -7 -21 -15 -21 -110 0 -57 4 -110 10 -118 7 -11 36
-14 137 -15 91 0 129 -3 133 -12 3 -7 4 -128 4 -270 -1 -159 2 -263 8 -270 8
-9 49 -13 144 -13 95 0 135 4 141 13 4 6 8 127 9 268 0 141 3 263 6 271 5 11
29 14 121 13 165 -1 157 -8 157 124 0 77 -4 112 -12 118 -16 10 -809 12 -837
1z"/>
<path d="M559 1304 c-6 -7 -8 -161 -7 -405 l3 -394 240 -2 c260 -2 321 5 415
49 135 63 179 156 175 369 -3 126 -9 161 -42 218 -49 84 -122 135 -233 161
-74 18 -536 21 -551 4z m454 -227 c55 -23 61 -38 62 -155 1 -59 -2 -120 -8
-135 -12 -36 -51 -55 -118 -58 -110 -3 -99 -24 -99 181 l0 180 65 0 c36 0 80
-6 98 -13z"/>
<path d="M2125 1307 c-13 -7 -15 -64 -15 -392 0 -211 3 -390 6 -399 5 -14 49
-16 388 -16 284 0 385 3 394 12 17 17 16 192 -1 206 -8 7 -91 11 -227 11 -118
0 -225 0 -236 0 -18 1 -22 7 -22 36 l0 35 203 0 c142 0 206 3 211 11 9 15 9
187 0 196 -4 4 -98 7 -209 8 l-202 1 0 34 0 35 229 3 c131 1 234 7 241 12 14
12 18 177 5 200 -7 13 -61 15 -380 15 -204 0 -377 -3 -385 -8z"/>
<path d="M3601 1312 c-6 -2 -11 -11 -11 -19 0 -31 272 -768 288 -780 11 -9 61
-13 167 -13 105 0 156 4 168 13 9 6 25 37 36 67 11 30 38 107 61 170 170 468
191 531 188 549 -5 23 -271 25 -300 1 -15 -12 -37 -71 -62 -165 -1 -5 -9 -30
-16 -55 -8 -25 -14 -47 -15 -50 -5 -24 -59 -189 -61 -187 -2 1 -33 101 -69
222 -36 121 -73 227 -81 235 -11 12 -43 15 -148 15 -74 1 -139 -1 -145 -3z"/>
</g>
</svg>
