<?xml version="1.0" standalone="no"?>
<!DOCTYPE svg PUBLIC "-//W3C//DTD SVG 20010904//EN"
 "http://www.w3.org/TR/2001/REC-SVG-20010904/DTD/svg10.dtd">
<svg version="1.0" xmlns="http://www.w3.org/2000/svg"
 width="500.000000pt" height="500.000000pt" viewBox="0 0 500.000000 500.000000"
 preserveAspectRatio="xMidYMid meet">
<metadata>
Created by potrace 1.14, written by Peter Selinger 2001-2017
</metadata>
<g transform="translate(0.000000,500.000000) scale(0.100000,-0.100000)"
fill="#000000" stroke="none">
<path d="M570 4565 c-12 -14 -15 -759 -4 -788 6 -16 29 -17 293 -17 276 1 347
7 401 32 94 45 134 108 135 213 0 80 -20 126 -72 161 l-32 21 23 13 c34 18 67
82 68 132 2 105 -50 180 -150 219 -54 20 -75 22 -355 24 -222 1 -300 -1 -307
-10z m463 -194 c9 0 22 -12 29 -26 9 -19 8 -29 -6 -50 -16 -24 -21 -25 -105
-25 l-89 0 0 47 c0 26 1 50 3 53 3 5 105 6 168 1z m32 -311 c22 -18 20 -77 -4
-90 -11 -5 -60 -10 -109 -10 l-89 0 0 53 c0 28 3 54 8 57 17 11 179 3 194 -10z"/>
<path d="M2078 4569 c-16 -10 -15 -216 1 -232 7 -7 55 -12 139 -12 l127 0 5
-280 5 -280 143 -3 c119 -2 143 0 148 12 3 9 7 136 7 283 l2 267 132 1 c73 1
136 4 139 8 10 10 10 224 0 234 -9 10 -832 11 -848 2z"/>
<path d="M3601 4572 c-17 -6 -13 -33 15 -108 26 -70 60 -162 153 -424 79 -221
93 -254 110 -268 11 -9 57 -12 176 -10 l160 3 17 35 c9 19 33 82 53 140 20 58
40 114 45 125 5 11 32 85 60 165 28 80 54 152 57 160 30 79 53 148 53 161 0
23 -18 26 -162 25 -98 -1 -131 -5 -142 -16 -9 -8 -45 -114 -81 -235 -36 -120
-67 -220 -69 -222 -1 -2 -20 54 -41 125 -21 70 -49 160 -62 201 -12 40 -23 79
-23 86 0 7 -9 23 -19 36 -18 23 -25 24 -154 24 -74 1 -139 -1 -146 -3z"/>
<path d="M2415 2963 c-181 -21 -310 -120 -340 -263 -14 -66 -8 -286 10 -339
39 -117 129 -191 268 -219 68 -14 280 -7 338 10 113 35 202 121 230 221 18 65
15 291 -4 358 -30 103 -135 190 -264 220 -50 11 -185 18 -238 12z m142 -233
c50 -18 63 -54 63 -178 0 -61 -4 -122 -10 -136 -28 -75 -180 -80 -217 -6 -19
38 -15 247 5 282 25 43 95 60 159 38z"/>
<path d="M560 2944 c-7 -7 -9 -159 -8 -405 l3 -394 240 -2 c262 -2 319 5 410
47 141 64 183 153 180 375 -2 95 -7 132 -24 176 -35 92 -129 171 -231 195 -19
4 -42 9 -50 11 -8 3 -127 5 -263 7 -181 2 -250 -1 -257 -10z m461 -230 c48
-24 54 -40 55 -153 0 -58 -4 -119 -9 -134 -14 -41 -54 -57 -142 -57 l-75 0 0
181 0 180 73 -2 c39 -1 84 -8 98 -15z"/>
<path d="M3630 2948 c-18 -7 -20 -16 -20 -112 0 -73 4 -109 13 -118 10 -9 48
-13 140 -13 80 0 127 -3 128 -10 0 -5 2 -127 2 -270 1 -143 6 -266 10 -272 6
-9 46 -13 142 -13 96 0 136 4 142 13 4 6 9 127 10 267 0 140 2 262 2 270 1 13
22 15 132 15 113 0 132 2 140 17 14 27 11 215 -3 225 -16 10 -811 11 -838 1z"/>
<path d="M560 1305 c-7 -8 -9 -156 -8 -406 l3 -394 240 -2 c260 -2 321 5 415
49 135 63 179 155 175 369 -3 126 -9 161 -42 218 -48 82 -119 133 -228 161
-69 18 -541 22 -555 5z m453 -228 c55 -23 60 -38 62 -155 1 -59 -2 -120 -8
-135 -15 -46 -62 -61 -179 -58 l-38 1 0 180 0 180 65 0 c36 0 80 -6 98 -13z"/>
<path d="M2120 1306 c-11 -11 -15 -763 -4 -790 5 -14 49 -16 388 -16 284 0
385 3 394 12 17 17 16 192 -1 206 -9 7 -84 11 -213 11 -109 0 -215 0 -235 1
-35 0 -37 1 -37 35 l0 35 203 0 c142 0 206 3 211 11 9 15 9 187 0 196 -4 4
-98 7 -209 8 l-202 1 0 34 0 35 229 3 c149 1 234 6 243 13 15 13 18 175 3 199
-8 13 -62 15 -385 15 -235 1 -379 -3 -385 -9z"/>
<path d="M3602 1312 c-19 -6 -14 -34 17 -119 17 -43 78 -211 136 -373 59 -162
114 -301 123 -307 11 -9 61 -13 167 -13 105 0 156 4 168 13 14 10 119 282 184
477 8 25 21 59 28 75 34 82 78 224 72 237 -4 13 -28 15 -145 14 -99 -1 -144
-5 -155 -14 -9 -8 -23 -39 -32 -70 -9 -32 -27 -91 -39 -132 -13 -41 -36 -117
-51 -168 -16 -50 -29 -91 -31 -89 -2 1 -33 101 -69 222 -36 121 -73 227 -81
235 -12 12 -43 15 -148 16 -73 0 -138 -2 -144 -4z"/>
</g>
</svg>
